STARTFONT 2.1
FONT --System-Bold-R-Normal--13-100-96-96-P-70-WINDOWS-ANSI~2.0
SIZE 10 96 96
FONTBOUNDINGBOX 14 16 0 -3
METRICSSET 2
STARTPROPERTIES 20
FONT_ASCENT 10
PIXEL_SIZE 13
RESOLUTION_X 96
RESOLUTION_Y 96
POINT_SIZE 100
FACE_NAME "System Bold 10"
COPYRIGHT "(c)Copyright Microsoft Corp. 1988-1989. All rights reserved"
FOUNDRY ""
FAMILY_NAME "System"
WEIGHT_NAME "Bold"
RELATIVE_WEIGHT 70
SLANT "R"
SPACING "P"
SETWIDTH_NAME "Normal"
RELATIVE_SETWIDTH 50
ADD_STYLE_NAME ""
AVERAGE_WIDTH 70
DEFAULT_CHAR 128
CHARSET_REGISTRY "WINDOWS"
CHARSET_ENCODING "ANSI-2.0"
ENDPROPERTIES
CHARS 224
STARTCHAR space
ENCODING 32
SWIDTH 300 0
DWIDTH 4 0
BBX 0 0 4 13
VVECTOR 6 13
SWIDTH1 0 -1200
DWIDTH1 0 -16
BITMAP 
ENDCHAR
STARTCHAR exclam
ENCODING 33
SWIDTH 300 0
DWIDTH 4 0
BBX 2 10 1 0
VVECTOR 2 13
SWIDTH1 0 -1200
DWIDTH1 0 -16
BITMAP 
C0
C0
C0
C0
C0
C0
C0
00
C0
C0
ENDCHAR
STARTCHAR quotedbl
ENCODING 34
SWIDTH 450 0
DWIDTH 6 0
BBX 6 4 0 6
VVECTOR 3 13
SWIDTH1 0 -1200
DWIDTH1 0 -16
BITMAP 
CC
CC
CC
CC
ENDCHAR
STARTCHAR numbersign
ENCODING 35
SWIDTH 600 0
DWIDTH 8 0
BBX 8 10 0 0
VVECTOR 4 13
SWIDTH1 0 -1200
DWIDTH1 0 -16
BITMAP 
36
36
7F
36
36
6C
6C
FE
6C
6C
ENDCHAR
STARTCHAR dollar
ENCODING 36
SWIDTH 600 0
DWIDTH 8 0
BBX 6 11 1 -1
VVECTOR 4 13
SWIDTH1 0 -1200
DWIDTH1 0 -16
BITMAP 
30
78
CC
CC
C0
78
0C
0C
CC
78
30
ENDCHAR
STARTCHAR percent
ENCODING 37
SWIDTH 825 0
DWIDTH 11 0
BBX 11 10 0 0
VVECTOR 6 13
SWIDTH1 0 -1200
DWIDTH1 0 -16
BITMAP 
7060
D8C0
D980
DB00
7600
0DC0
1B60
3360
6360
C1C0
ENDCHAR
STARTCHAR ampersand
ENCODING 38
SWIDTH 675 0
DWIDTH 9 0
BBX 7 10 1 0
VVECTOR 5 13
SWIDTH1 0 -1200
DWIDTH1 0 -16
BITMAP 
38
6C
6C
6C
38
70
DA
CE
CC
7E
ENDCHAR
STARTCHAR quotesingle
ENCODING 39
SWIDTH 300 0
DWIDTH 4 0
BBX 2 4 1 6
VVECTOR 2 13
SWIDTH1 0 -1200
DWIDTH1 0 -16
BITMAP 
C0
C0
C0
C0
ENDCHAR
STARTCHAR parenleft
ENCODING 40
SWIDTH 300 0
DWIDTH 4 0
BBX 3 13 1 -3
VVECTOR 3 13
SWIDTH1 0 -1200
DWIDTH1 0 -16
BITMAP 
60
C0
C0
C0
C0
C0
C0
C0
C0
C0
C0
C0
60
ENDCHAR
STARTCHAR parenright
ENCODING 41
SWIDTH 300 0
DWIDTH 4 0
BBX 3 13 0 -3
VVECTOR 1 13
SWIDTH1 0 -1200
DWIDTH1 0 -16
BITMAP 
C0
60
60
60
60
60
60
60
60
60
60
60
C0
ENDCHAR
STARTCHAR asterisk
ENCODING 42
SWIDTH 450 0
DWIDTH 6 0
BBX 6 5 0 5
VVECTOR 3 13
SWIDTH1 0 -1200
DWIDTH1 0 -16
BITMAP 
30
FC
30
78
48
ENDCHAR
STARTCHAR plus
ENCODING 43
SWIDTH 600 0
DWIDTH 8 0
BBX 6 7 1 1
VVECTOR 4 13
SWIDTH1 0 -1200
DWIDTH1 0 -16
BITMAP 
30
30
30
FC
30
30
30
ENDCHAR
STARTCHAR comma
ENCODING 44
SWIDTH 300 0
DWIDTH 4 0
BBX 3 3 0 -1
VVECTOR 1 13
SWIDTH1 0 -1200
DWIDTH1 0 -16
BITMAP 
60
60
C0
ENDCHAR
STARTCHAR hyphen
ENCODING 45
SWIDTH 300 0
DWIDTH 4 0
BBX 4 1 0 4
VVECTOR 2 13
SWIDTH1 0 -1200
DWIDTH1 0 -16
BITMAP 
F0
ENDCHAR
STARTCHAR period
ENCODING 46
SWIDTH 300 0
DWIDTH 4 0
BBX 2 2 1 0
VVECTOR 2 13
SWIDTH1 0 -1200
DWIDTH1 0 -16
BITMAP 
C0
C0
ENDCHAR
STARTCHAR slash
ENCODING 47
SWIDTH 300 0
DWIDTH 4 0
BBX 4 12 0 -2
VVECTOR 2 13
SWIDTH1 0 -1200
DWIDTH1 0 -16
BITMAP 
30
30
30
30
60
60
60
60
C0
C0
C0
C0
ENDCHAR
STARTCHAR zero
ENCODING 48
SWIDTH 600 0
DWIDTH 8 0
BBX 6 10 1 0
VVECTOR 4 13
SWIDTH1 0 -1200
DWIDTH1 0 -16
BITMAP 
78
CC
CC
CC
CC
CC
CC
CC
CC
78
ENDCHAR
STARTCHAR one
ENCODING 49
SWIDTH 600 0
DWIDTH 8 0
BBX 4 10 1 0
VVECTOR 2 13
SWIDTH1 0 -1200
DWIDTH1 0 -16
BITMAP 
30
F0
30
30
30
30
30
30
30
30
ENDCHAR
STARTCHAR two
ENCODING 50
SWIDTH 600 0
DWIDTH 8 0
BBX 6 10 1 0
VVECTOR 4 13
SWIDTH1 0 -1200
DWIDTH1 0 -16
BITMAP 
78
CC
CC
0C
18
30
60
C0
C0
FC
ENDCHAR
STARTCHAR three
ENCODING 51
SWIDTH 600 0
DWIDTH 8 0
BBX 6 10 1 0
VVECTOR 4 13
SWIDTH1 0 -1200
DWIDTH1 0 -16
BITMAP 
78
CC
0C
0C
38
0C
0C
0C
CC
78
ENDCHAR
STARTCHAR four
ENCODING 52
SWIDTH 600 0
DWIDTH 8 0
BBX 6 10 1 0
VVECTOR 4 13
SWIDTH1 0 -1200
DWIDTH1 0 -16
BITMAP 
0C
1C
3C
3C
6C
6C
CC
FC
0C
0C
ENDCHAR
STARTCHAR five
ENCODING 53
SWIDTH 600 0
DWIDTH 8 0
BBX 6 10 1 0
VVECTOR 4 13
SWIDTH1 0 -1200
DWIDTH1 0 -16
BITMAP 
FC
C0
C0
C0
F8
CC
0C
0C
CC
78
ENDCHAR
STARTCHAR six
ENCODING 54
SWIDTH 600 0
DWIDTH 8 0
BBX 6 10 1 0
VVECTOR 4 13
SWIDTH1 0 -1200
DWIDTH1 0 -16
BITMAP 
78
CC
C0
C0
F8
CC
CC
CC
CC
78
ENDCHAR
STARTCHAR seven
ENCODING 55
SWIDTH 600 0
DWIDTH 8 0
BBX 6 10 1 0
VVECTOR 4 13
SWIDTH1 0 -1200
DWIDTH1 0 -16
BITMAP 
FC
0C
18
18
30
30
30
60
60
60
ENDCHAR
STARTCHAR eight
ENCODING 56
SWIDTH 600 0
DWIDTH 8 0
BBX 6 10 1 0
VVECTOR 4 13
SWIDTH1 0 -1200
DWIDTH1 0 -16
BITMAP 
78
CC
CC
CC
78
CC
CC
CC
CC
78
ENDCHAR
STARTCHAR nine
ENCODING 57
SWIDTH 600 0
DWIDTH 8 0
BBX 6 10 1 0
VVECTOR 4 13
SWIDTH1 0 -1200
DWIDTH1 0 -16
BITMAP 
78
CC
CC
CC
CC
7C
0C
0C
CC
78
ENDCHAR
STARTCHAR colon
ENCODING 58
SWIDTH 300 0
DWIDTH 4 0
BBX 2 8 1 0
VVECTOR 2 13
SWIDTH1 0 -1200
DWIDTH1 0 -16
BITMAP 
C0
C0
00
00
00
00
C0
C0
ENDCHAR
STARTCHAR semicolon
ENCODING 59
SWIDTH 300 0
DWIDTH 4 0
BBX 3 9 0 -1
VVECTOR 1 13
SWIDTH1 0 -1200
DWIDTH1 0 -16
BITMAP 
60
60
00
00
00
00
60
60
C0
ENDCHAR
STARTCHAR less
ENCODING 60
SWIDTH 600 0
DWIDTH 8 0
BBX 6 9 1 0
VVECTOR 4 13
SWIDTH1 0 -1200
DWIDTH1 0 -16
BITMAP 
0C
18
30
60
C0
60
30
18
0C
ENDCHAR
STARTCHAR equal
ENCODING 61
SWIDTH 600 0
DWIDTH 8 0
BBX 6 4 1 3
VVECTOR 4 13
SWIDTH1 0 -1200
DWIDTH1 0 -16
BITMAP 
FC
00
00
FC
ENDCHAR
STARTCHAR greater
ENCODING 62
SWIDTH 600 0
DWIDTH 8 0
BBX 6 9 1 0
VVECTOR 4 13
SWIDTH1 0 -1200
DWIDTH1 0 -16
BITMAP 
C0
60
30
18
0C
18
30
60
C0
ENDCHAR
STARTCHAR question
ENCODING 63
SWIDTH 600 0
DWIDTH 8 0
BBX 6 10 1 0
VVECTOR 4 13
SWIDTH1 0 -1200
DWIDTH1 0 -16
BITMAP 
78
CC
CC
0C
18
30
30
00
30
30
ENDCHAR
STARTCHAR at
ENCODING 64
SWIDTH 1050 0
DWIDTH 14 0
BBX 12 13 1 -2
VVECTOR 7 13
SWIDTH1 0 -1200
DWIDTH1 0 -16
BITMAP 
0F00
39C0
6060
6760
CDB0
CDB0
D9B0
DB30
DB30
6DE0
6000
38E0
0F80
ENDCHAR
STARTCHAR A
ENCODING 65
SWIDTH 600 0
DWIDTH 8 0
BBX 8 10 0 0
VVECTOR 4 13
SWIDTH1 0 -1200
DWIDTH1 0 -16
BITMAP 
18
18
3C
3C
24
66
66
7E
C3
C3
ENDCHAR
STARTCHAR B
ENCODING 66
SWIDTH 750 0
DWIDTH 10 0
BBX 8 10 1 0
VVECTOR 5 13
SWIDTH1 0 -1200
DWIDTH1 0 -16
BITMAP 
FE
C3
C3
C3
FE
C3
C3
C3
C3
FE
ENDCHAR
STARTCHAR C
ENCODING 67
SWIDTH 675 0
DWIDTH 9 0
BBX 7 10 1 0
VVECTOR 5 13
SWIDTH1 0 -1200
DWIDTH1 0 -16
BITMAP 
3C
66
C2
C0
C0
C0
C0
C2
66
3C
ENDCHAR
STARTCHAR D
ENCODING 68
SWIDTH 750 0
DWIDTH 10 0
BBX 8 10 1 0
VVECTOR 5 13
SWIDTH1 0 -1200
DWIDTH1 0 -16
BITMAP 
FC
C6
C3
C3
C3
C3
C3
C3
C6
FC
ENDCHAR
STARTCHAR E
ENCODING 69
SWIDTH 675 0
DWIDTH 9 0
BBX 7 10 1 0
VVECTOR 5 13
SWIDTH1 0 -1200
DWIDTH1 0 -16
BITMAP 
FE
C0
C0
C0
FC
C0
C0
C0
C0
FE
ENDCHAR
STARTCHAR F
ENCODING 70
SWIDTH 600 0
DWIDTH 8 0
BBX 7 10 1 0
VVECTOR 5 13
SWIDTH1 0 -1200
DWIDTH1 0 -16
BITMAP 
FE
C0
C0
C0
FC
C0
C0
C0
C0
C0
ENDCHAR
STARTCHAR G
ENCODING 71
SWIDTH 750 0
DWIDTH 10 0
BBX 8 10 1 0
VVECTOR 5 13
SWIDTH1 0 -1200
DWIDTH1 0 -16
BITMAP 
3E
63
C1
C0
C0
CF
C3
C3
63
3D
ENDCHAR
STARTCHAR H
ENCODING 72
SWIDTH 750 0
DWIDTH 10 0
BBX 8 10 1 0
VVECTOR 5 13
SWIDTH1 0 -1200
DWIDTH1 0 -16
BITMAP 
C3
C3
C3
C3
FF
C3
C3
C3
C3
C3
ENDCHAR
STARTCHAR I
ENCODING 73
SWIDTH 300 0
DWIDTH 4 0
BBX 2 10 1 0
VVECTOR 2 13
SWIDTH1 0 -1200
DWIDTH1 0 -16
BITMAP 
C0
C0
C0
C0
C0
C0
C0
C0
C0
C0
ENDCHAR
STARTCHAR J
ENCODING 74
SWIDTH 525 0
DWIDTH 7 0
BBX 6 10 0 0
VVECTOR 3 13
SWIDTH1 0 -1200
DWIDTH1 0 -16
BITMAP 
0C
0C
0C
0C
0C
0C
0C
CC
CC
78
ENDCHAR
STARTCHAR K
ENCODING 75
SWIDTH 675 0
DWIDTH 9 0
BBX 8 10 1 0
VVECTOR 6 13
SWIDTH1 0 -1200
DWIDTH1 0 -16
BITMAP 
C6
CC
D8
F0
E0
F0
D8
CC
C6
C3
ENDCHAR
STARTCHAR L
ENCODING 76
SWIDTH 600 0
DWIDTH 8 0
BBX 7 10 1 0
VVECTOR 5 13
SWIDTH1 0 -1200
DWIDTH1 0 -16
BITMAP 
C0
C0
C0
C0
C0
C0
C0
C0
C0
FE
ENDCHAR
STARTCHAR M
ENCODING 77
SWIDTH 900 0
DWIDTH 12 0
BBX 10 10 1 0
VVECTOR 6 13
SWIDTH1 0 -1200
DWIDTH1 0 -16
BITMAP 
C0C0
C0C0
E1C0
E1C0
F3C0
F3C0
DEC0
DEC0
CCC0
CCC0
ENDCHAR
STARTCHAR N
ENCODING 78
SWIDTH 750 0
DWIDTH 10 0
BBX 8 10 1 0
VVECTOR 5 13
SWIDTH1 0 -1200
DWIDTH1 0 -16
BITMAP 
C3
E3
F3
F3
DB
DB
CF
CF
C7
C3
ENDCHAR
STARTCHAR O
ENCODING 79
SWIDTH 750 0
DWIDTH 10 0
BBX 8 10 1 0
VVECTOR 5 13
SWIDTH1 0 -1200
DWIDTH1 0 -16
BITMAP 
3C
66
C3
C3
C3
C3
C3
C3
66
3C
ENDCHAR
STARTCHAR P
ENCODING 80
SWIDTH 675 0
DWIDTH 9 0
BBX 8 10 1 0
VVECTOR 6 13
SWIDTH1 0 -1200
DWIDTH1 0 -16
BITMAP 
FE
C3
C3
C3
C3
FE
C0
C0
C0
C0
ENDCHAR
STARTCHAR Q
ENCODING 81
SWIDTH 750 0
DWIDTH 10 0
BBX 8 10 1 0
VVECTOR 5 13
SWIDTH1 0 -1200
DWIDTH1 0 -16
BITMAP 
3C
66
C3
C3
C3
C3
C3
CF
66
3F
ENDCHAR
STARTCHAR R
ENCODING 82
SWIDTH 750 0
DWIDTH 10 0
BBX 9 10 1 0
VVECTOR 6 13
SWIDTH1 0 -1200
DWIDTH1 0 -16
BITMAP 
FE00
C300
C300
C300
C300
FE00
C300
C300
C300
C180
ENDCHAR
STARTCHAR S
ENCODING 83
SWIDTH 675 0
DWIDTH 9 0
BBX 7 10 1 0
VVECTOR 5 13
SWIDTH1 0 -1200
DWIDTH1 0 -16
BITMAP 
7C
C6
C6
C0
70
1C
06
C6
C6
7C
ENDCHAR
STARTCHAR T
ENCODING 84
SWIDTH 600 0
DWIDTH 8 0
BBX 8 10 0 0
VVECTOR 4 13
SWIDTH1 0 -1200
DWIDTH1 0 -16
BITMAP 
FF
18
18
18
18
18
18
18
18
18
ENDCHAR
STARTCHAR U
ENCODING 85
SWIDTH 750 0
DWIDTH 10 0
BBX 8 10 1 0
VVECTOR 5 13
SWIDTH1 0 -1200
DWIDTH1 0 -16
BITMAP 
C3
C3
C3
C3
C3
C3
C3
C3
66
3C
ENDCHAR
STARTCHAR V
ENCODING 86
SWIDTH 600 0
DWIDTH 8 0
BBX 8 10 0 0
VVECTOR 4 13
SWIDTH1 0 -1200
DWIDTH1 0 -16
BITMAP 
C3
C3
66
66
66
24
3C
3C
18
18
ENDCHAR
STARTCHAR W
ENCODING 87
SWIDTH 1050 0
DWIDTH 14 0
BBX 14 10 0 0
VVECTOR 7 13
SWIDTH1 0 -1200
DWIDTH1 0 -16
BITMAP 
C30C
C30C
C30C
6798
6798
34B0
3CF0
1860
1860
1860
ENDCHAR
STARTCHAR X
ENCODING 88
SWIDTH 675 0
DWIDTH 9 0
BBX 9 10 0 0
VVECTOR 5 13
SWIDTH1 0 -1200
DWIDTH1 0 -16
BITMAP 
C180
C180
6300
3600
1C00
1C00
3600
6300
C180
C180
ENDCHAR
STARTCHAR Y
ENCODING 89
SWIDTH 750 0
DWIDTH 10 0
BBX 10 10 0 0
VVECTOR 5 13
SWIDTH1 0 -1200
DWIDTH1 0 -16
BITMAP 
C0C0
C0C0
6180
3300
1E00
0C00
0C00
0C00
0C00
0C00
ENDCHAR
STARTCHAR Z
ENCODING 90
SWIDTH 675 0
DWIDTH 9 0
BBX 9 10 0 0
VVECTOR 5 13
SWIDTH1 0 -1200
DWIDTH1 0 -16
BITMAP 
FF80
0180
0300
0600
0C00
1800
3000
6000
C000
FF80
ENDCHAR
STARTCHAR bracketleft
ENCODING 91
SWIDTH 300 0
DWIDTH 4 0
BBX 3 13 1 -3
VVECTOR 3 13
SWIDTH1 0 -1200
DWIDTH1 0 -16
BITMAP 
E0
C0
C0
C0
C0
C0
C0
C0
C0
C0
C0
C0
E0
ENDCHAR
STARTCHAR backslash
ENCODING 92
SWIDTH 300 0
DWIDTH 4 0
BBX 4 12 0 -2
VVECTOR 2 13
SWIDTH1 0 -1200
DWIDTH1 0 -16
BITMAP 
C0
C0
C0
C0
60
60
60
60
30
30
30
30
ENDCHAR
STARTCHAR bracketright
ENCODING 93
SWIDTH 300 0
DWIDTH 4 0
BBX 3 13 0 -3
VVECTOR 1 13
SWIDTH1 0 -1200
DWIDTH1 0 -16
BITMAP 
E0
60
60
60
60
60
60
60
60
60
60
60
E0
ENDCHAR
STARTCHAR asciicircum
ENCODING 94
SWIDTH 375 0
DWIDTH 5 0
BBX 5 3 0 7
VVECTOR 3 13
SWIDTH1 0 -1200
DWIDTH1 0 -16
BITMAP 
20
70
D8
ENDCHAR
STARTCHAR underscore
ENCODING 95
SWIDTH 600 0
DWIDTH 8 0
BBX 8 1 0 -3
VVECTOR 4 13
SWIDTH1 0 -1200
DWIDTH1 0 -16
BITMAP 
FF
ENDCHAR
STARTCHAR grave
ENCODING 96
SWIDTH 375 0
DWIDTH 5 0
BBX 4 3 1 8
VVECTOR 4 13
SWIDTH1 0 -1200
DWIDTH1 0 -16
BITMAP 
E0
60
30
ENDCHAR
STARTCHAR a
ENCODING 97
SWIDTH 600 0
DWIDTH 8 0
BBX 6 7 1 0
VVECTOR 4 13
SWIDTH1 0 -1200
DWIDTH1 0 -16
BITMAP 
78
CC
3C
6C
CC
CC
7C
ENDCHAR
STARTCHAR b
ENCODING 98
SWIDTH 600 0
DWIDTH 8 0
BBX 6 10 1 0
VVECTOR 4 13
SWIDTH1 0 -1200
DWIDTH1 0 -16
BITMAP 
C0
C0
C0
F8
CC
CC
CC
CC
CC
F8
ENDCHAR
STARTCHAR c
ENCODING 99
SWIDTH 525 0
DWIDTH 7 0
BBX 6 7 1 0
VVECTOR 5 13
SWIDTH1 0 -1200
DWIDTH1 0 -16
BITMAP 
78
CC
C0
C0
C0
CC
78
ENDCHAR
STARTCHAR d
ENCODING 100
SWIDTH 600 0
DWIDTH 8 0
BBX 6 10 1 0
VVECTOR 4 13
SWIDTH1 0 -1200
DWIDTH1 0 -16
BITMAP 
0C
0C
0C
7C
CC
CC
CC
CC
CC
7C
ENDCHAR
STARTCHAR e
ENCODING 101
SWIDTH 600 0
DWIDTH 8 0
BBX 6 7 1 0
VVECTOR 4 13
SWIDTH1 0 -1200
DWIDTH1 0 -16
BITMAP 
78
CC
FC
C0
C0
CC
78
ENDCHAR
STARTCHAR f
ENCODING 102
SWIDTH 300 0
DWIDTH 4 0
BBX 4 10 0 0
VVECTOR 2 13
SWIDTH1 0 -1200
DWIDTH1 0 -16
BITMAP 
30
60
60
F0
60
60
60
60
60
60
ENDCHAR
STARTCHAR g
ENCODING 103
SWIDTH 600 0
DWIDTH 8 0
BBX 6 10 1 -3
VVECTOR 4 13
SWIDTH1 0 -1200
DWIDTH1 0 -16
BITMAP 
7C
CC
CC
CC
CC
CC
7C
0C
CC
78
ENDCHAR
STARTCHAR h
ENCODING 104
SWIDTH 600 0
DWIDTH 8 0
BBX 6 10 1 0
VVECTOR 4 13
SWIDTH1 0 -1200
DWIDTH1 0 -16
BITMAP 
C0
C0
C0
F8
CC
CC
CC
CC
CC
CC
ENDCHAR
STARTCHAR i
ENCODING 105
SWIDTH 300 0
DWIDTH 4 0
BBX 2 10 1 0
VVECTOR 2 13
SWIDTH1 0 -1200
DWIDTH1 0 -16
BITMAP 
C0
C0
00
C0
C0
C0
C0
C0
C0
C0
ENDCHAR
STARTCHAR j
ENCODING 106
SWIDTH 300 0
DWIDTH 4 0
BBX 3 13 0 -3
VVECTOR 1 13
SWIDTH1 0 -1200
DWIDTH1 0 -16
BITMAP 
60
60
00
60
60
60
60
60
60
60
60
60
C0
ENDCHAR
STARTCHAR k
ENCODING 107
SWIDTH 525 0
DWIDTH 7 0
BBX 6 10 1 0
VVECTOR 5 13
SWIDTH1 0 -1200
DWIDTH1 0 -16
BITMAP 
C0
C0
C0
CC
D8
F0
E0
F0
D8
CC
ENDCHAR
STARTCHAR l
ENCODING 108
SWIDTH 300 0
DWIDTH 4 0
BBX 2 10 1 0
VVECTOR 2 13
SWIDTH1 0 -1200
DWIDTH1 0 -16
BITMAP 
C0
C0
C0
C0
C0
C0
C0
C0
C0
C0
ENDCHAR
STARTCHAR m
ENCODING 109
SWIDTH 900 0
DWIDTH 12 0
BBX 10 7 1 0
VVECTOR 6 13
SWIDTH1 0 -1200
DWIDTH1 0 -16
BITMAP 
FF80
CCC0
CCC0
CCC0
CCC0
CCC0
CCC0
ENDCHAR
STARTCHAR n
ENCODING 110
SWIDTH 600 0
DWIDTH 8 0
BBX 6 7 1 0
VVECTOR 4 13
SWIDTH1 0 -1200
DWIDTH1 0 -16
BITMAP 
F8
CC
CC
CC
CC
CC
CC
ENDCHAR
STARTCHAR o
ENCODING 111
SWIDTH 600 0
DWIDTH 8 0
BBX 6 7 1 0
VVECTOR 4 13
SWIDTH1 0 -1200
DWIDTH1 0 -16
BITMAP 
78
CC
CC
CC
CC
CC
78
ENDCHAR
STARTCHAR p
ENCODING 112
SWIDTH 600 0
DWIDTH 8 0
BBX 6 10 1 -3
VVECTOR 4 13
SWIDTH1 0 -1200
DWIDTH1 0 -16
BITMAP 
F8
CC
CC
CC
CC
CC
F8
C0
C0
C0
ENDCHAR
STARTCHAR q
ENCODING 113
SWIDTH 600 0
DWIDTH 8 0
BBX 6 10 1 -3
VVECTOR 4 13
SWIDTH1 0 -1200
DWIDTH1 0 -16
BITMAP 
7C
CC
CC
CC
CC
CC
7C
0C
0C
0C
ENDCHAR
STARTCHAR r
ENCODING 114
SWIDTH 375 0
DWIDTH 5 0
BBX 4 7 1 0
VVECTOR 4 13
SWIDTH1 0 -1200
DWIDTH1 0 -16
BITMAP 
F0
E0
C0
C0
C0
C0
C0
ENDCHAR
STARTCHAR s
ENCODING 115
SWIDTH 600 0
DWIDTH 8 0
BBX 6 7 1 0
VVECTOR 4 13
SWIDTH1 0 -1200
DWIDTH1 0 -16
BITMAP 
78
CC
C0
78
0C
CC
78
ENDCHAR
STARTCHAR t
ENCODING 116
SWIDTH 300 0
DWIDTH 4 0
BBX 4 9 0 0
VVECTOR 2 13
SWIDTH1 0 -1200
DWIDTH1 0 -16
BITMAP 
60
60
F0
60
60
60
60
60
30
ENDCHAR
STARTCHAR u
ENCODING 117
SWIDTH 600 0
DWIDTH 8 0
BBX 6 7 1 0
VVECTOR 4 13
SWIDTH1 0 -1200
DWIDTH1 0 -16
BITMAP 
CC
CC
CC
CC
CC
CC
7C
ENDCHAR
STARTCHAR v
ENCODING 118
SWIDTH 600 0
DWIDTH 8 0
BBX 8 7 0 0
VVECTOR 4 13
SWIDTH1 0 -1200
DWIDTH1 0 -16
BITMAP 
C3
C3
66
66
3C
18
18
ENDCHAR
STARTCHAR w
ENCODING 119
SWIDTH 750 0
DWIDTH 10 0
BBX 10 7 0 0
VVECTOR 5 13
SWIDTH1 0 -1200
DWIDTH1 0 -16
BITMAP 
C0C0
CCC0
6D80
6D80
7F80
3300
3300
ENDCHAR
STARTCHAR x
ENCODING 120
SWIDTH 600 0
DWIDTH 8 0
BBX 8 7 0 0
VVECTOR 4 13
SWIDTH1 0 -1200
DWIDTH1 0 -16
BITMAP 
C3
66
3C
18
3C
66
C3
ENDCHAR
STARTCHAR y
ENCODING 121
SWIDTH 600 0
DWIDTH 8 0
BBX 8 10 0 -3
VVECTOR 4 13
SWIDTH1 0 -1200
DWIDTH1 0 -16
BITMAP 
C3
C3
66
66
3C
3C
18
18
30
60
ENDCHAR
STARTCHAR z
ENCODING 122
SWIDTH 600 0
DWIDTH 8 0
BBX 6 7 1 0
VVECTOR 4 13
SWIDTH1 0 -1200
DWIDTH1 0 -16
BITMAP 
FC
0C
18
30
60
C0
FC
ENDCHAR
STARTCHAR braceleft
ENCODING 123
SWIDTH 375 0
DWIDTH 5 0
BBX 4 13 1 -3
VVECTOR 4 13
SWIDTH1 0 -1200
DWIDTH1 0 -16
BITMAP 
30
60
60
60
60
60
C0
60
60
60
60
60
30
ENDCHAR
STARTCHAR bar
ENCODING 124
SWIDTH 300 0
DWIDTH 4 0
BBX 2 13 1 -3
VVECTOR 2 13
SWIDTH1 0 -1200
DWIDTH1 0 -16
BITMAP 
C0
C0
C0
C0
C0
C0
C0
C0
C0
C0
C0
C0
C0
ENDCHAR
STARTCHAR braceright
ENCODING 125
SWIDTH 375 0
DWIDTH 5 0
BBX 4 13 0 -3
VVECTOR 2 13
SWIDTH1 0 -1200
DWIDTH1 0 -16
BITMAP 
C0
60
60
60
60
60
30
60
60
60
60
60
C0
ENDCHAR
STARTCHAR asciitilde
ENCODING 126
SWIDTH 375 0
DWIDTH 5 0
BBX 5 2 0 8
VVECTOR 3 13
SWIDTH1 0 -1200
DWIDTH1 0 -16
BITMAP 
E8
B8
ENDCHAR
STARTCHAR uni007F
ENCODING 127
SWIDTH 300 0
DWIDTH 4 0
BBX 2 9 1 0
VVECTOR 2 13
SWIDTH1 0 -1200
DWIDTH1 0 -16
BITMAP 
C0
C0
C0
C0
C0
C0
C0
C0
C0
ENDCHAR
STARTCHAR char80
ENCODING 128
SWIDTH 300 0
DWIDTH 4 0
BBX 2 9 1 0
VVECTOR 2 13
SWIDTH1 0 -1200
DWIDTH1 0 -16
BITMAP 
C0
C0
C0
C0
C0
C0
C0
C0
C0
ENDCHAR
STARTCHAR char81
ENCODING 129
SWIDTH 300 0
DWIDTH 4 0
BBX 2 9 1 0
VVECTOR 2 13
SWIDTH1 0 -1200
DWIDTH1 0 -16
BITMAP 
C0
C0
C0
C0
C0
C0
C0
C0
C0
ENDCHAR
STARTCHAR char82
ENCODING 130
SWIDTH 300 0
DWIDTH 4 0
BBX 2 9 1 0
VVECTOR 2 13
SWIDTH1 0 -1200
DWIDTH1 0 -16
BITMAP 
C0
C0
C0
C0
C0
C0
C0
C0
C0
ENDCHAR
STARTCHAR char83
ENCODING 131
SWIDTH 300 0
DWIDTH 4 0
BBX 2 9 1 0
VVECTOR 2 13
SWIDTH1 0 -1200
DWIDTH1 0 -16
BITMAP 
C0
C0
C0
C0
C0
C0
C0
C0
C0
ENDCHAR
STARTCHAR char84
ENCODING 132
SWIDTH 300 0
DWIDTH 4 0
BBX 2 9 1 0
VVECTOR 2 13
SWIDTH1 0 -1200
DWIDTH1 0 -16
BITMAP 
C0
C0
C0
C0
C0
C0
C0
C0
C0
ENDCHAR
STARTCHAR char85
ENCODING 133
SWIDTH 300 0
DWIDTH 4 0
BBX 2 9 1 0
VVECTOR 2 13
SWIDTH1 0 -1200
DWIDTH1 0 -16
BITMAP 
C0
C0
C0
C0
C0
C0
C0
C0
C0
ENDCHAR
STARTCHAR char86
ENCODING 134
SWIDTH 300 0
DWIDTH 4 0
BBX 2 9 1 0
VVECTOR 2 13
SWIDTH1 0 -1200
DWIDTH1 0 -16
BITMAP 
C0
C0
C0
C0
C0
C0
C0
C0
C0
ENDCHAR
STARTCHAR char87
ENCODING 135
SWIDTH 300 0
DWIDTH 4 0
BBX 2 9 1 0
VVECTOR 2 13
SWIDTH1 0 -1200
DWIDTH1 0 -16
BITMAP 
C0
C0
C0
C0
C0
C0
C0
C0
C0
ENDCHAR
STARTCHAR char88
ENCODING 136
SWIDTH 300 0
DWIDTH 4 0
BBX 2 9 1 0
VVECTOR 2 13
SWIDTH1 0 -1200
DWIDTH1 0 -16
BITMAP 
C0
C0
C0
C0
C0
C0
C0
C0
C0
ENDCHAR
STARTCHAR char89
ENCODING 137
SWIDTH 300 0
DWIDTH 4 0
BBX 2 9 1 0
VVECTOR 2 13
SWIDTH1 0 -1200
DWIDTH1 0 -16
BITMAP 
C0
C0
C0
C0
C0
C0
C0
C0
C0
ENDCHAR
STARTCHAR char8A
ENCODING 138
SWIDTH 300 0
DWIDTH 4 0
BBX 2 9 1 0
VVECTOR 2 13
SWIDTH1 0 -1200
DWIDTH1 0 -16
BITMAP 
C0
C0
C0
C0
C0
C0
C0
C0
C0
ENDCHAR
STARTCHAR char8B
ENCODING 139
SWIDTH 300 0
DWIDTH 4 0
BBX 2 9 1 0
VVECTOR 2 13
SWIDTH1 0 -1200
DWIDTH1 0 -16
BITMAP 
C0
C0
C0
C0
C0
C0
C0
C0
C0
ENDCHAR
STARTCHAR char8C
ENCODING 140
SWIDTH 300 0
DWIDTH 4 0
BBX 2 9 1 0
VVECTOR 2 13
SWIDTH1 0 -1200
DWIDTH1 0 -16
BITMAP 
C0
C0
C0
C0
C0
C0
C0
C0
C0
ENDCHAR
STARTCHAR char8D
ENCODING 141
SWIDTH 300 0
DWIDTH 4 0
BBX 2 9 1 0
VVECTOR 2 13
SWIDTH1 0 -1200
DWIDTH1 0 -16
BITMAP 
C0
C0
C0
C0
C0
C0
C0
C0
C0
ENDCHAR
STARTCHAR char8E
ENCODING 142
SWIDTH 300 0
DWIDTH 4 0
BBX 2 9 1 0
VVECTOR 2 13
SWIDTH1 0 -1200
DWIDTH1 0 -16
BITMAP 
C0
C0
C0
C0
C0
C0
C0
C0
C0
ENDCHAR
STARTCHAR char8F
ENCODING 143
SWIDTH 300 0
DWIDTH 4 0
BBX 2 9 1 0
VVECTOR 2 13
SWIDTH1 0 -1200
DWIDTH1 0 -16
BITMAP 
C0
C0
C0
C0
C0
C0
C0
C0
C0
ENDCHAR
STARTCHAR char90
ENCODING 144
SWIDTH 300 0
DWIDTH 4 0
BBX 2 9 1 0
VVECTOR 2 13
SWIDTH1 0 -1200
DWIDTH1 0 -16
BITMAP 
C0
C0
C0
C0
C0
C0
C0
C0
C0
ENDCHAR
STARTCHAR quoteleft
ENCODING 145
SWIDTH 300 0
DWIDTH 4 0
BBX 3 2 1 9
VVECTOR 3 13
SWIDTH1 0 -1200
DWIDTH1 0 -16
BITMAP 
60
C0
ENDCHAR
STARTCHAR quoteright
ENCODING 146
SWIDTH 300 0
DWIDTH 4 0
BBX 3 2 0 9
VVECTOR 1 13
SWIDTH1 0 -1200
DWIDTH1 0 -16
BITMAP 
60
C0
ENDCHAR
STARTCHAR char93
ENCODING 147
SWIDTH 300 0
DWIDTH 4 0
BBX 2 9 1 0
VVECTOR 2 13
SWIDTH1 0 -1200
DWIDTH1 0 -16
BITMAP 
C0
C0
C0
C0
C0
C0
C0
C0
C0
ENDCHAR
STARTCHAR char94
ENCODING 148
SWIDTH 300 0
DWIDTH 4 0
BBX 2 9 1 0
VVECTOR 2 13
SWIDTH1 0 -1200
DWIDTH1 0 -16
BITMAP 
C0
C0
C0
C0
C0
C0
C0
C0
C0
ENDCHAR
STARTCHAR char95
ENCODING 149
SWIDTH 300 0
DWIDTH 4 0
BBX 2 9 1 0
VVECTOR 2 13
SWIDTH1 0 -1200
DWIDTH1 0 -16
BITMAP 
C0
C0
C0
C0
C0
C0
C0
C0
C0
ENDCHAR
STARTCHAR char96
ENCODING 150
SWIDTH 300 0
DWIDTH 4 0
BBX 2 9 1 0
VVECTOR 2 13
SWIDTH1 0 -1200
DWIDTH1 0 -16
BITMAP 
C0
C0
C0
C0
C0
C0
C0
C0
C0
ENDCHAR
STARTCHAR char97
ENCODING 151
SWIDTH 300 0
DWIDTH 4 0
BBX 2 9 1 0
VVECTOR 2 13
SWIDTH1 0 -1200
DWIDTH1 0 -16
BITMAP 
C0
C0
C0
C0
C0
C0
C0
C0
C0
ENDCHAR
STARTCHAR char98
ENCODING 152
SWIDTH 300 0
DWIDTH 4 0
BBX 2 9 1 0
VVECTOR 2 13
SWIDTH1 0 -1200
DWIDTH1 0 -16
BITMAP 
C0
C0
C0
C0
C0
C0
C0
C0
C0
ENDCHAR
STARTCHAR char99
ENCODING 153
SWIDTH 300 0
DWIDTH 4 0
BBX 2 9 1 0
VVECTOR 2 13
SWIDTH1 0 -1200
DWIDTH1 0 -16
BITMAP 
C0
C0
C0
C0
C0
C0
C0
C0
C0
ENDCHAR
STARTCHAR char9A
ENCODING 154
SWIDTH 300 0
DWIDTH 4 0
BBX 2 9 1 0
VVECTOR 2 13
SWIDTH1 0 -1200
DWIDTH1 0 -16
BITMAP 
C0
C0
C0
C0
C0
C0
C0
C0
C0
ENDCHAR
STARTCHAR char9B
ENCODING 155
SWIDTH 300 0
DWIDTH 4 0
BBX 2 9 1 0
VVECTOR 2 13
SWIDTH1 0 -1200
DWIDTH1 0 -16
BITMAP 
C0
C0
C0
C0
C0
C0
C0
C0
C0
ENDCHAR
STARTCHAR char9C
ENCODING 156
SWIDTH 300 0
DWIDTH 4 0
BBX 2 9 1 0
VVECTOR 2 13
SWIDTH1 0 -1200
DWIDTH1 0 -16
BITMAP 
C0
C0
C0
C0
C0
C0
C0
C0
C0
ENDCHAR
STARTCHAR char9D
ENCODING 157
SWIDTH 300 0
DWIDTH 4 0
BBX 2 9 1 0
VVECTOR 2 13
SWIDTH1 0 -1200
DWIDTH1 0 -16
BITMAP 
C0
C0
C0
C0
C0
C0
C0
C0
C0
ENDCHAR
STARTCHAR char9E
ENCODING 158
SWIDTH 300 0
DWIDTH 4 0
BBX 2 9 1 0
VVECTOR 2 13
SWIDTH1 0 -1200
DWIDTH1 0 -16
BITMAP 
C0
C0
C0
C0
C0
C0
C0
C0
C0
ENDCHAR
STARTCHAR char9F
ENCODING 159
SWIDTH 300 0
DWIDTH 4 0
BBX 2 9 1 0
VVECTOR 2 13
SWIDTH1 0 -1200
DWIDTH1 0 -16
BITMAP 
C0
C0
C0
C0
C0
C0
C0
C0
C0
ENDCHAR
STARTCHAR uni00A0
ENCODING 160
SWIDTH 675 0
DWIDTH 9 0
BBX 0 0 9 13
VVECTOR 14 13
SWIDTH1 0 -1200
DWIDTH1 0 -16
BITMAP 
ENDCHAR
STARTCHAR exclamdown
ENCODING 161
SWIDTH 300 0
DWIDTH 4 0
BBX 2 10 1 0
VVECTOR 2 13
SWIDTH1 0 -1200
DWIDTH1 0 -16
BITMAP 
C0
C0
00
C0
C0
C0
C0
C0
C0
C0
ENDCHAR
STARTCHAR cent
ENCODING 162
SWIDTH 600 0
DWIDTH 8 0
BBX 6 9 1 -1
VVECTOR 4 13
SWIDTH1 0 -1200
DWIDTH1 0 -16
BITMAP 
18
78
DC
D0
D0
E0
EC
78
60
ENDCHAR
STARTCHAR sterling
ENCODING 163
SWIDTH 600 0
DWIDTH 8 0
BBX 6 10 1 0
VVECTOR 4 13
SWIDTH1 0 -1200
DWIDTH1 0 -16
BITMAP 
70
D8
C0
C0
60
F0
60
60
CC
F8
ENDCHAR
STARTCHAR currency
ENCODING 164
SWIDTH 600 0
DWIDTH 8 0
BBX 6 6 1 4
VVECTOR 4 13
SWIDTH1 0 -1200
DWIDTH1 0 -16
BITMAP 
CC
78
48
48
78
CC
ENDCHAR
STARTCHAR yen
ENCODING 165
SWIDTH 600 0
DWIDTH 8 0
BBX 8 10 0 0
VVECTOR 4 13
SWIDTH1 0 -1200
DWIDTH1 0 -16
BITMAP 
C3
C3
66
66
FF
18
FF
18
18
18
ENDCHAR
STARTCHAR brokenbar
ENCODING 166
SWIDTH 300 0
DWIDTH 4 0
BBX 2 13 1 -3
VVECTOR 2 13
SWIDTH1 0 -1200
DWIDTH1 0 -16
BITMAP 
C0
C0
C0
C0
C0
C0
00
C0
C0
C0
C0
C0
C0
ENDCHAR
STARTCHAR section
ENCODING 167
SWIDTH 600 0
DWIDTH 8 0
BBX 6 10 1 0
VVECTOR 4 13
SWIDTH1 0 -1200
DWIDTH1 0 -16
BITMAP 
78
CC
70
70
D8
6C
38
38
CC
78
ENDCHAR
STARTCHAR dieresis
ENCODING 168
SWIDTH 375 0
DWIDTH 5 0
BBX 5 2 0 8
VVECTOR 3 13
SWIDTH1 0 -1200
DWIDTH1 0 -16
BITMAP 
D8
D8
ENDCHAR
STARTCHAR copyright
ENCODING 169
SWIDTH 750 0
DWIDTH 10 0
BBX 10 10 0 0
VVECTOR 5 13
SWIDTH1 0 -1200
DWIDTH1 0 -16
BITMAP 
3F00
6180
CCC0
D2C0
D0C0
D0C0
D2C0
CCC0
6180
3F00
ENDCHAR
STARTCHAR ordfeminine
ENCODING 170
SWIDTH 375 0
DWIDTH 5 0
BBX 3 7 1 3
VVECTOR 3 13
SWIDTH1 0 -1200
DWIDTH1 0 -16
BITMAP 
40
20
60
A0
60
00
E0
ENDCHAR
STARTCHAR guillemotleft
ENCODING 171
SWIDTH 525 0
DWIDTH 7 0
BBX 7 5 0 1
VVECTOR 4 13
SWIDTH1 0 -1200
DWIDTH1 0 -16
BITMAP 
36
6C
D8
6C
36
ENDCHAR
STARTCHAR logicalnot
ENCODING 172
SWIDTH 600 0
DWIDTH 8 0
BBX 6 3 1 3
VVECTOR 4 13
SWIDTH1 0 -1200
DWIDTH1 0 -16
BITMAP 
FC
0C
0C
ENDCHAR
STARTCHAR uni00AD
ENCODING 173
SWIDTH 300 0
DWIDTH 4 0
BBX 4 1 0 4
VVECTOR 2 13
SWIDTH1 0 -1200
DWIDTH1 0 -16
BITMAP 
F0
ENDCHAR
STARTCHAR registered
ENCODING 174
SWIDTH 750 0
DWIDTH 10 0
BBX 10 10 0 0
VVECTOR 5 13
SWIDTH1 0 -1200
DWIDTH1 0 -16
BITMAP 
3F00
6180
DCC0
D2C0
D2C0
DCC0
D4C0
D2C0
6180
3F00
ENDCHAR
STARTCHAR macron
ENCODING 175
SWIDTH 600 0
DWIDTH 8 0
BBX 8 1 0 11
VVECTOR 4 13
SWIDTH1 0 -1200
DWIDTH1 0 -16
BITMAP 
FF
ENDCHAR
STARTCHAR degree
ENCODING 176
SWIDTH 375 0
DWIDTH 5 0
BBX 3 4 1 6
VVECTOR 3 13
SWIDTH1 0 -1200
DWIDTH1 0 -16
BITMAP 
E0
A0
A0
E0
ENDCHAR
STARTCHAR plusminus
ENCODING 177
SWIDTH 600 0
DWIDTH 8 0
BBX 6 7 1 0
VVECTOR 4 13
SWIDTH1 0 -1200
DWIDTH1 0 -16
BITMAP 
30
30
FC
30
30
00
FC
ENDCHAR
STARTCHAR uni00B2
ENCODING 178
SWIDTH 300 0
DWIDTH 4 0
BBX 4 5 0 5
VVECTOR 2 13
SWIDTH1 0 -1200
DWIDTH1 0 -16
BITMAP 
60
B0
30
60
F0
ENDCHAR
STARTCHAR uni00B3
ENCODING 179
SWIDTH 300 0
DWIDTH 4 0
BBX 4 5 0 5
VVECTOR 2 13
SWIDTH1 0 -1200
DWIDTH1 0 -16
BITMAP 
60
B0
60
B0
60
ENDCHAR
STARTCHAR acute
ENCODING 180
SWIDTH 375 0
DWIDTH 5 0
BBX 4 3 1 8
VVECTOR 4 13
SWIDTH1 0 -1200
DWIDTH1 0 -16
BITMAP 
70
60
C0
ENDCHAR
STARTCHAR mu
ENCODING 181
SWIDTH 600 0
DWIDTH 8 0
BBX 7 11 1 -3
VVECTOR 5 13
SWIDTH1 0 -1200
DWIDTH1 0 -16
BITMAP 
CC
CC
CC
CC
CC
CC
CC
FE
C0
C0
C0
ENDCHAR
STARTCHAR paragraph
ENCODING 182
SWIDTH 525 0
DWIDTH 7 0
BBX 5 10 1 0
VVECTOR 4 13
SWIDTH1 0 -1200
DWIDTH1 0 -16
BITMAP 
78
F8
F8
F8
F8
78
18
18
18
18
ENDCHAR
STARTCHAR periodcentered
ENCODING 183
SWIDTH 300 0
DWIDTH 4 0
BBX 2 2 1 4
VVECTOR 2 13
SWIDTH1 0 -1200
DWIDTH1 0 -16
BITMAP 
C0
C0
ENDCHAR
STARTCHAR cedilla
ENCODING 184
SWIDTH 375 0
DWIDTH 5 0
BBX 4 3 1 -3
VVECTOR 4 13
SWIDTH1 0 -1200
DWIDTH1 0 -16
BITMAP 
60
30
E0
ENDCHAR
STARTCHAR uni00B9
ENCODING 185
SWIDTH 300 0
DWIDTH 4 0
BBX 3 5 0 5
VVECTOR 1 13
SWIDTH1 0 -1200
DWIDTH1 0 -16
BITMAP 
60
E0
60
60
60
ENDCHAR
STARTCHAR ordmasculine
ENCODING 186
SWIDTH 375 0
DWIDTH 5 0
BBX 3 7 1 3
VVECTOR 3 13
SWIDTH1 0 -1200
DWIDTH1 0 -16
BITMAP 
E0
A0
A0
A0
E0
00
E0
ENDCHAR
STARTCHAR guillemotright
ENCODING 187
SWIDTH 525 0
DWIDTH 7 0
BBX 7 5 0 1
VVECTOR 4 13
SWIDTH1 0 -1200
DWIDTH1 0 -16
BITMAP 
D8
6C
36
6C
D8
ENDCHAR
STARTCHAR onequarter
ENCODING 188
SWIDTH 825 0
DWIDTH 11 0
BBX 11 10 0 0
VVECTOR 6 13
SWIDTH1 0 -1200
DWIDTH1 0 -16
BITMAP 
3060
70C0
3180
3300
3600
0CC0
19C0
3340
63C0
C0C0
ENDCHAR
STARTCHAR onehalf
ENCODING 189
SWIDTH 825 0
DWIDTH 11 0
BBX 11 10 0 0
VVECTOR 6 13
SWIDTH1 0 -1200
DWIDTH1 0 -16
BITMAP 
3060
70C0
3180
3300
3600
0D80
1AC0
30C0
6180
C3C0
ENDCHAR
STARTCHAR threequarters
ENCODING 190
SWIDTH 825 0
DWIDTH 11 0
BBX 11 10 0 0
VVECTOR 6 13
SWIDTH1 0 -1200
DWIDTH1 0 -16
BITMAP 
3060
58C0
3180
5B00
3600
0CC0
19C0
3340
63C0
C0C0
ENDCHAR
STARTCHAR questiondown
ENCODING 191
SWIDTH 600 0
DWIDTH 8 0
BBX 6 10 1 0
VVECTOR 4 13
SWIDTH1 0 -1200
DWIDTH1 0 -16
BITMAP 
30
30
00
30
30
60
C0
CC
CC
78
ENDCHAR
STARTCHAR Agrave
ENCODING 192
SWIDTH 600 0
DWIDTH 8 0
BBX 8 13 0 0
VVECTOR 4 13
SWIDTH1 0 -1200
DWIDTH1 0 -16
BITMAP 
38
18
0C
18
18
3C
3C
24
66
66
7E
C3
C3
ENDCHAR
STARTCHAR Aacute
ENCODING 193
SWIDTH 600 0
DWIDTH 8 0
BBX 8 13 0 0
VVECTOR 4 13
SWIDTH1 0 -1200
DWIDTH1 0 -16
BITMAP 
1C
18
30
18
18
3C
3C
24
66
66
7E
C3
C3
ENDCHAR
STARTCHAR Acircumflex
ENCODING 194
SWIDTH 600 0
DWIDTH 8 0
BBX 8 13 0 0
VVECTOR 4 13
SWIDTH1 0 -1200
DWIDTH1 0 -16
BITMAP 
18
3C
66
18
18
3C
3C
24
66
66
7E
C3
C3
ENDCHAR
STARTCHAR Atilde
ENCODING 195
SWIDTH 600 0
DWIDTH 8 0
BBX 8 13 0 0
VVECTOR 4 13
SWIDTH1 0 -1200
DWIDTH1 0 -16
BITMAP 
7A
5E
00
18
18
3C
3C
24
66
66
7E
C3
C3
ENDCHAR
STARTCHAR Adieresis
ENCODING 196
SWIDTH 600 0
DWIDTH 8 0
BBX 8 13 0 0
VVECTOR 4 13
SWIDTH1 0 -1200
DWIDTH1 0 -16
BITMAP 
66
66
00
18
18
3C
3C
24
66
66
7E
C3
C3
ENDCHAR
STARTCHAR Aring
ENCODING 197
SWIDTH 600 0
DWIDTH 8 0
BBX 8 13 0 0
VVECTOR 4 13
SWIDTH1 0 -1200
DWIDTH1 0 -16
BITMAP 
18
3C
18
00
18
18
3C
24
66
66
7E
C3
C3
ENDCHAR
STARTCHAR AE
ENCODING 198
SWIDTH 975 0
DWIDTH 13 0
BBX 12 10 0 0
VVECTOR 6 13
SWIDTH1 0 -1200
DWIDTH1 0 -16
BITMAP 
1FF0
1E00
3600
3600
37E0
6600
6600
7E00
C600
C7F0
ENDCHAR
STARTCHAR Ccedilla
ENCODING 199
SWIDTH 675 0
DWIDTH 9 0
BBX 7 13 1 -3
VVECTOR 5 13
SWIDTH1 0 -1200
DWIDTH1 0 -16
BITMAP 
3C
66
C2
C0
C0
C0
C0
C2
66
3C
18
0C
38
ENDCHAR
STARTCHAR Egrave
ENCODING 200
SWIDTH 675 0
DWIDTH 9 0
BBX 7 13 1 0
VVECTOR 5 13
SWIDTH1 0 -1200
DWIDTH1 0 -16
BITMAP 
38
18
0C
FE
C0
C0
C0
FC
C0
C0
C0
C0
FE
ENDCHAR
STARTCHAR Eacute
ENCODING 201
SWIDTH 675 0
DWIDTH 9 0
BBX 7 13 1 0
VVECTOR 5 13
SWIDTH1 0 -1200
DWIDTH1 0 -16
BITMAP 
1C
18
30
FE
C0
C0
C0
FC
C0
C0
C0
C0
FE
ENDCHAR
STARTCHAR Ecircumflex
ENCODING 202
SWIDTH 675 0
DWIDTH 9 0
BBX 7 13 1 0
VVECTOR 5 13
SWIDTH1 0 -1200
DWIDTH1 0 -16
BITMAP 
18
3C
66
FE
C0
C0
C0
FC
C0
C0
C0
C0
FE
ENDCHAR
STARTCHAR Edieresis
ENCODING 203
SWIDTH 675 0
DWIDTH 9 0
BBX 7 13 1 0
VVECTOR 5 13
SWIDTH1 0 -1200
DWIDTH1 0 -16
BITMAP 
66
66
00
FE
C0
C0
C0
FC
C0
C0
C0
C0
FE
ENDCHAR
STARTCHAR Igrave
ENCODING 204
SWIDTH 300 0
DWIDTH 4 0
BBX 3 13 0 0
VVECTOR 1 13
SWIDTH1 0 -1200
DWIDTH1 0 -16
BITMAP 
C0
60
00
60
60
60
60
60
60
60
60
60
60
ENDCHAR
STARTCHAR Iacute
ENCODING 205
SWIDTH 300 0
DWIDTH 4 0
BBX 3 13 1 0
VVECTOR 3 13
SWIDTH1 0 -1200
DWIDTH1 0 -16
BITMAP 
60
C0
00
C0
C0
C0
C0
C0
C0
C0
C0
C0
C0
ENDCHAR
STARTCHAR Icircumflex
ENCODING 206
SWIDTH 300 0
DWIDTH 4 0
BBX 4 13 0 0
VVECTOR 2 13
SWIDTH1 0 -1200
DWIDTH1 0 -16
BITMAP 
60
90
00
60
60
60
60
60
60
60
60
60
60
ENDCHAR
STARTCHAR Idieresis
ENCODING 207
SWIDTH 300 0
DWIDTH 4 0
BBX 4 13 0 0
VVECTOR 2 13
SWIDTH1 0 -1200
DWIDTH1 0 -16
BITMAP 
90
00
00
60
60
60
60
60
60
60
60
60
60
ENDCHAR
STARTCHAR Eth
ENCODING 208
SWIDTH 750 0
DWIDTH 10 0
BBX 9 10 0 0
VVECTOR 4 13
SWIDTH1 0 -1200
DWIDTH1 0 -16
BITMAP 
7E00
6300
6180
6180
F980
6180
6180
6180
6300
7E00
ENDCHAR
STARTCHAR Ntilde
ENCODING 209
SWIDTH 750 0
DWIDTH 10 0
BBX 8 13 1 0
VVECTOR 5 13
SWIDTH1 0 -1200
DWIDTH1 0 -16
BITMAP 
7A
5E
00
C3
E3
F3
F3
DB
DB
CF
CF
C7
C3
ENDCHAR
STARTCHAR Ograve
ENCODING 210
SWIDTH 750 0
DWIDTH 10 0
BBX 8 13 1 0
VVECTOR 5 13
SWIDTH1 0 -1200
DWIDTH1 0 -16
BITMAP 
38
18
0C
3C
66
C3
C3
C3
C3
C3
C3
66
3C
ENDCHAR
STARTCHAR Oacute
ENCODING 211
SWIDTH 750 0
DWIDTH 10 0
BBX 8 13 1 0
VVECTOR 5 13
SWIDTH1 0 -1200
DWIDTH1 0 -16
BITMAP 
1C
18
30
3C
66
C3
C3
C3
C3
C3
C3
66
3C
ENDCHAR
STARTCHAR Ocircumflex
ENCODING 212
SWIDTH 750 0
DWIDTH 10 0
BBX 8 13 1 0
VVECTOR 5 13
SWIDTH1 0 -1200
DWIDTH1 0 -16
BITMAP 
18
3C
66
3C
66
C3
C3
C3
C3
C3
C3
66
3C
ENDCHAR
STARTCHAR Otilde
ENCODING 213
SWIDTH 750 0
DWIDTH 10 0
BBX 8 13 1 0
VVECTOR 5 13
SWIDTH1 0 -1200
DWIDTH1 0 -16
BITMAP 
7A
5E
00
3C
66
C3
C3
C3
C3
C3
C3
66
3C
ENDCHAR
STARTCHAR Odieresis
ENCODING 214
SWIDTH 750 0
DWIDTH 10 0
BBX 8 13 1 0
VVECTOR 5 13
SWIDTH1 0 -1200
DWIDTH1 0 -16
BITMAP 
66
66
00
3C
66
C3
C3
C3
C3
C3
C3
66
3C
ENDCHAR
STARTCHAR multiply
ENCODING 215
SWIDTH 600 0
DWIDTH 8 0
BBX 6 5 1 1
VVECTOR 4 13
SWIDTH1 0 -1200
DWIDTH1 0 -16
BITMAP 
CC
78
30
78
CC
ENDCHAR
STARTCHAR Oslash
ENCODING 216
SWIDTH 750 0
DWIDTH 10 0
BBX 8 10 1 0
VVECTOR 5 13
SWIDTH1 0 -1200
DWIDTH1 0 -16
BITMAP 
3F
66
C7
CF
DB
DB
F3
E3
66
FC
ENDCHAR
STARTCHAR Ugrave
ENCODING 217
SWIDTH 750 0
DWIDTH 10 0
BBX 8 13 1 0
VVECTOR 5 13
SWIDTH1 0 -1200
DWIDTH1 0 -16
BITMAP 
38
18
0C
C3
C3
C3
C3
C3
C3
C3
C3
66
3C
ENDCHAR
STARTCHAR Uacute
ENCODING 218
SWIDTH 750 0
DWIDTH 10 0
BBX 8 13 1 0
VVECTOR 5 13
SWIDTH1 0 -1200
DWIDTH1 0 -16
BITMAP 
1C
18
30
C3
C3
C3
C3
C3
C3
C3
C3
66
3C
ENDCHAR
STARTCHAR Ucircumflex
ENCODING 219
SWIDTH 750 0
DWIDTH 10 0
BBX 8 13 1 0
VVECTOR 5 13
SWIDTH1 0 -1200
DWIDTH1 0 -16
BITMAP 
18
3C
66
00
C3
C3
C3
C3
C3
C3
C3
66
3C
ENDCHAR
STARTCHAR Udieresis
ENCODING 220
SWIDTH 750 0
DWIDTH 10 0
BBX 8 13 1 0
VVECTOR 5 13
SWIDTH1 0 -1200
DWIDTH1 0 -16
BITMAP 
66
66
00
C3
C3
C3
C3
C3
C3
C3
C3
66
3C
ENDCHAR
STARTCHAR Yacute
ENCODING 221
SWIDTH 750 0
DWIDTH 10 0
BBX 10 13 0 0
VVECTOR 5 13
SWIDTH1 0 -1200
DWIDTH1 0 -16
BITMAP 
0E00
0C00
1800
C0C0
C0C0
6180
3300
1E00
0C00
0C00
0C00
0C00
0C00
ENDCHAR
STARTCHAR Thorn
ENCODING 222
SWIDTH 675 0
DWIDTH 9 0
BBX 7 10 1 0
VVECTOR 5 13
SWIDTH1 0 -1200
DWIDTH1 0 -16
BITMAP 
C0
C0
FC
C6
C6
C6
C6
FC
C0
C0
ENDCHAR
STARTCHAR germandbls
ENCODING 223
SWIDTH 600 0
DWIDTH 8 0
BBX 6 10 1 0
VVECTOR 4 13
SWIDTH1 0 -1200
DWIDTH1 0 -16
BITMAP 
78
CC
CC
CC
D8
CC
CC
CC
CC
D8
ENDCHAR
STARTCHAR agrave
ENCODING 224
SWIDTH 600 0
DWIDTH 8 0
BBX 6 11 1 0
VVECTOR 4 13
SWIDTH1 0 -1200
DWIDTH1 0 -16
BITMAP 
70
30
18
00
78
CC
3C
6C
CC
CC
7C
ENDCHAR
STARTCHAR aacute
ENCODING 225
SWIDTH 600 0
DWIDTH 8 0
BBX 6 11 1 0
VVECTOR 4 13
SWIDTH1 0 -1200
DWIDTH1 0 -16
BITMAP 
38
30
60
00
78
CC
3C
6C
CC
CC
7C
ENDCHAR
STARTCHAR acircumflex
ENCODING 226
SWIDTH 600 0
DWIDTH 8 0
BBX 6 11 1 0
VVECTOR 4 13
SWIDTH1 0 -1200
DWIDTH1 0 -16
BITMAP 
30
78
CC
00
78
CC
3C
6C
CC
CC
7C
ENDCHAR
STARTCHAR atilde
ENCODING 227
SWIDTH 600 0
DWIDTH 8 0
BBX 6 10 1 0
VVECTOR 4 13
SWIDTH1 0 -1200
DWIDTH1 0 -16
BITMAP 
F4
BC
00
78
CC
3C
6C
CC
CC
7C
ENDCHAR
STARTCHAR adieresis
ENCODING 228
SWIDTH 600 0
DWIDTH 8 0
BBX 6 10 1 0
VVECTOR 4 13
SWIDTH1 0 -1200
DWIDTH1 0 -16
BITMAP 
CC
CC
00
78
CC
3C
6C
CC
CC
7C
ENDCHAR
STARTCHAR aring
ENCODING 229
SWIDTH 600 0
DWIDTH 8 0
BBX 6 11 1 0
VVECTOR 4 13
SWIDTH1 0 -1200
DWIDTH1 0 -16
BITMAP 
30
78
30
00
78
CC
3C
6C
CC
CC
7C
ENDCHAR
STARTCHAR ae
ENCODING 230
SWIDTH 900 0
DWIDTH 12 0
BBX 10 7 1 0
VVECTOR 6 13
SWIDTH1 0 -1200
DWIDTH1 0 -16
BITMAP 
7F80
CCC0
3FC0
6C00
CC00
CCC0
7F80
ENDCHAR
STARTCHAR ccedilla
ENCODING 231
SWIDTH 525 0
DWIDTH 7 0
BBX 6 10 1 -3
VVECTOR 5 13
SWIDTH1 0 -1200
DWIDTH1 0 -16
BITMAP 
78
CC
C0
C0
C0
CC
78
30
18
70
ENDCHAR
STARTCHAR egrave
ENCODING 232
SWIDTH 600 0
DWIDTH 8 0
BBX 6 11 1 0
VVECTOR 4 13
SWIDTH1 0 -1200
DWIDTH1 0 -16
BITMAP 
70
30
18
00
78
CC
FC
C0
C0
CC
78
ENDCHAR
STARTCHAR eacute
ENCODING 233
SWIDTH 600 0
DWIDTH 8 0
BBX 6 11 1 0
VVECTOR 4 13
SWIDTH1 0 -1200
DWIDTH1 0 -16
BITMAP 
38
30
60
00
78
CC
FC
C0
C0
CC
78
ENDCHAR
STARTCHAR ecircumflex
ENCODING 234
SWIDTH 600 0
DWIDTH 8 0
BBX 6 11 1 0
VVECTOR 4 13
SWIDTH1 0 -1200
DWIDTH1 0 -16
BITMAP 
30
78
CC
00
78
CC
FC
C0
C0
CC
78
ENDCHAR
STARTCHAR edieresis
ENCODING 235
SWIDTH 600 0
DWIDTH 8 0
BBX 6 10 1 0
VVECTOR 4 13
SWIDTH1 0 -1200
DWIDTH1 0 -16
BITMAP 
CC
CC
00
78
CC
FC
C0
C0
CC
78
ENDCHAR
STARTCHAR igrave
ENCODING 236
SWIDTH 300 0
DWIDTH 4 0
BBX 4 11 0 0
VVECTOR 2 13
SWIDTH1 0 -1200
DWIDTH1 0 -16
BITMAP 
E0
60
30
00
60
60
60
60
60
60
60
ENDCHAR
STARTCHAR iacute
ENCODING 237
SWIDTH 300 0
DWIDTH 4 0
BBX 4 11 0 0
VVECTOR 2 13
SWIDTH1 0 -1200
DWIDTH1 0 -16
BITMAP 
70
60
C0
00
60
60
60
60
60
60
60
ENDCHAR
STARTCHAR icircumflex
ENCODING 238
SWIDTH 300 0
DWIDTH 4 0
BBX 4 11 0 0
VVECTOR 2 13
SWIDTH1 0 -1200
DWIDTH1 0 -16
BITMAP 
60
F0
00
00
60
60
60
60
60
60
60
ENDCHAR
STARTCHAR idieresis
ENCODING 239
SWIDTH 300 0
DWIDTH 4 0
BBX 4 10 0 0
VVECTOR 2 13
SWIDTH1 0 -1200
DWIDTH1 0 -16
BITMAP 
90
90
00
60
60
60
60
60
60
60
ENDCHAR
STARTCHAR eth
ENCODING 240
SWIDTH 600 0
DWIDTH 8 0
BBX 6 10 1 0
VVECTOR 4 13
SWIDTH1 0 -1200
DWIDTH1 0 -16
BITMAP 
EC
30
D8
18
7C
CC
CC
CC
CC
78
ENDCHAR
STARTCHAR ntilde
ENCODING 241
SWIDTH 600 0
DWIDTH 8 0
BBX 6 10 1 0
VVECTOR 4 13
SWIDTH1 0 -1200
DWIDTH1 0 -16
BITMAP 
F4
BC
00
F8
CC
CC
CC
CC
CC
CC
ENDCHAR
STARTCHAR ograve
ENCODING 242
SWIDTH 600 0
DWIDTH 8 0
BBX 6 11 1 0
VVECTOR 4 13
SWIDTH1 0 -1200
DWIDTH1 0 -16
BITMAP 
70
30
18
00
78
CC
CC
CC
CC
CC
78
ENDCHAR
STARTCHAR oacute
ENCODING 243
SWIDTH 600 0
DWIDTH 8 0
BBX 6 11 1 0
VVECTOR 4 13
SWIDTH1 0 -1200
DWIDTH1 0 -16
BITMAP 
38
30
60
00
78
CC
CC
CC
CC
CC
78
ENDCHAR
STARTCHAR ocircumflex
ENCODING 244
SWIDTH 600 0
DWIDTH 8 0
BBX 6 11 1 0
VVECTOR 4 13
SWIDTH1 0 -1200
DWIDTH1 0 -16
BITMAP 
30
78
CC
00
78
CC
CC
CC
CC
CC
78
ENDCHAR
STARTCHAR otilde
ENCODING 245
SWIDTH 600 0
DWIDTH 8 0
BBX 6 10 1 0
VVECTOR 4 13
SWIDTH1 0 -1200
DWIDTH1 0 -16
BITMAP 
F4
BC
00
78
CC
CC
CC
CC
CC
78
ENDCHAR
STARTCHAR odieresis
ENCODING 246
SWIDTH 600 0
DWIDTH 8 0
BBX 6 10 1 0
VVECTOR 4 13
SWIDTH1 0 -1200
DWIDTH1 0 -16
BITMAP 
CC
CC
00
78
CC
CC
CC
CC
CC
78
ENDCHAR
STARTCHAR divide
ENCODING 247
SWIDTH 450 0
DWIDTH 6 0
BBX 4 7 1 1
VVECTOR 3 13
SWIDTH1 0 -1200
DWIDTH1 0 -16
BITMAP 
60
60
00
F0
00
60
60
ENDCHAR
STARTCHAR oslash
ENCODING 248
SWIDTH 600 0
DWIDTH 8 0
BBX 6 7 1 0
VVECTOR 4 13
SWIDTH1 0 -1200
DWIDTH1 0 -16
BITMAP 
7C
DC
DC
CC
EC
EC
F8
ENDCHAR
STARTCHAR ugrave
ENCODING 249
SWIDTH 600 0
DWIDTH 8 0
BBX 6 11 1 0
VVECTOR 4 13
SWIDTH1 0 -1200
DWIDTH1 0 -16
BITMAP 
70
30
18
00
CC
CC
CC
CC
CC
CC
7C
ENDCHAR
STARTCHAR uacute
ENCODING 250
SWIDTH 600 0
DWIDTH 8 0
BBX 6 11 1 0
VVECTOR 4 13
SWIDTH1 0 -1200
DWIDTH1 0 -16
BITMAP 
38
30
60
00
CC
CC
CC
CC
CC
CC
7C
ENDCHAR
STARTCHAR ucircumflex
ENCODING 251
SWIDTH 600 0
DWIDTH 8 0
BBX 6 11 1 0
VVECTOR 4 13
SWIDTH1 0 -1200
DWIDTH1 0 -16
BITMAP 
30
78
CC
00
CC
CC
CC
CC
CC
CC
7C
ENDCHAR
STARTCHAR udieresis
ENCODING 252
SWIDTH 600 0
DWIDTH 8 0
BBX 6 10 1 0
VVECTOR 4 13
SWIDTH1 0 -1200
DWIDTH1 0 -16
BITMAP 
CC
CC
00
CC
CC
CC
CC
CC
CC
7C
ENDCHAR
STARTCHAR yacute
ENCODING 253
SWIDTH 600 0
DWIDTH 8 0
BBX 8 14 0 -3
VVECTOR 4 13
SWIDTH1 0 -1200
DWIDTH1 0 -16
BITMAP 
1C
18
30
00
C3
C3
66
66
3C
3C
18
18
30
60
ENDCHAR
STARTCHAR thorn
ENCODING 254
SWIDTH 600 0
DWIDTH 8 0
BBX 6 13 1 -3
VVECTOR 4 13
SWIDTH1 0 -1200
DWIDTH1 0 -16
BITMAP 
C0
C0
C0
F8
CC
CC
CC
CC
CC
F8
C0
C0
C0
ENDCHAR
STARTCHAR ydieresis
ENCODING 255
SWIDTH 600 0
DWIDTH 8 0
BBX 8 13 0 -3
VVECTOR 4 13
SWIDTH1 0 -1200
DWIDTH1 0 -16
BITMAP 
66
66
00
C3
C3
66
66
3C
3C
18
18
30
60
ENDCHAR
ENDFONT
